<svg width="16" height="16" viewBox="0 0 16 16" fill="none" xmlns="http://www.w3.org/2000/svg">
<path d="M11.3012 1.7959L10.7639 2.72576L12.6258 3.8005L13.1632 2.87062C13.3112 2.6125 13.2231 2.285 12.9659 2.13587L12.0361 1.59849C11.7788 1.44952 11.4504 1.53765 11.3012 1.7959Z" fill="black"/>
<path d="M7.99999 2.41987C8.33986 2.41987 8.67186 2.45312 8.99999 2.5V1.63025L9.68749 1.62499V0.5C9.68749 0.223634 9.46385 0 9.18749 0H6.81775C6.54138 0 6.31775 0.223634 6.31775 0.5V1.62499L6.99999 1.63025V2.5C7.32812 2.45312 7.66012 2.41987 7.99999 2.41987Z" fill="currentcolor"/>
<path d="M8 3C4.41014 3 1.5 5.91012 1.5 9.5C1.5 13.0899 4.41014 16 8 16C11.5899 16 14.5 13.0899 14.5 9.5C14.5 5.91012 11.5899 3 8 3ZM11.0375 12.555L7.24999 9.93289V6.23111H8.34301V9.36024L11.6596 11.6564L11.0375 12.555Z" fill="currentcolor"/>
</svg>
